<svg width="75" height="75" viewBox="0 0 75 75" fill="none" xmlns="http://www.w3.org/2000/svg">
<path d="M43.3594 50.3906C44.6538 50.3906 45.7031 49.3413 45.7031 48.0469C45.7031 46.7525 44.6538 45.7031 43.3594 45.7031C42.065 45.7031 41.0156 46.7525 41.0156 48.0469C41.0156 49.3413 42.065 50.3906 43.3594 50.3906Z" fill="#D88DBC" fill-opacity="0.9"/>
<path d="M29.2969 45.7031C31.8857 45.7031 33.9844 43.6045 33.9844 41.0156C33.9844 38.4268 31.8857 36.3281 29.2969 36.3281C26.708 36.3281 24.6094 38.4268 24.6094 41.0156C24.6094 43.6045 26.708 45.7031 29.2969 45.7031Z" fill="#D88DBC" fill-opacity="0.9"/>
<path d="M35.1562 29.2969C36.4507 29.2969 37.5 28.2475 37.5 26.9531C37.5 25.6587 36.4507 24.6094 35.1562 24.6094C33.8618 24.6094 32.8125 25.6587 32.8125 26.9531C32.8125 28.2475 33.8618 29.2969 35.1562 29.2969Z" fill="#D88DBC" fill-opacity="0.9"/>
<path d="M71.4844 35.1562C72.106 35.1562 72.7021 35.4032 73.1417 35.8427C73.5812 36.2823 73.8281 36.8784 73.8281 37.5C73.8281 38.1216 73.5812 38.7177 73.1417 39.1573C72.7021 39.5968 72.106 39.8438 71.4844 39.8438H67.9688C65.0456 39.9772 62.1567 40.5298 59.3906 41.4844C58.916 44.1105 57.9669 46.6282 56.5898 48.9141C58.0262 52.0972 59.9475 55.0384 62.2852 57.6328L64.4297 59.7656H64.4531C65.1484 59.7656 65.8282 59.9718 66.4063 60.3581C66.9844 60.7444 67.435 61.2935 67.7011 61.9359C67.9672 62.5783 68.0368 63.2851 67.9012 63.9671C67.7655 64.6491 67.4307 65.2755 66.939 65.7672C66.4474 66.2588 65.821 66.5937 65.139 66.7293C64.457 66.865 63.7502 66.7954 63.1078 66.5293C62.4654 66.2632 61.9163 65.8126 61.53 65.2344C61.1437 64.6563 60.9375 63.9766 60.9375 63.2812V63.2578L58.8047 61.1133C56.31 58.8589 53.4891 56.9941 50.4375 55.582C47.7733 57.5012 44.7147 58.8023 41.4844 59.3906C40.5298 62.1567 39.9772 65.0456 39.8438 67.9688V71.4844C39.8438 72.106 39.5968 72.7021 39.1573 73.1417C38.7177 73.5812 38.1216 73.8281 37.5 73.8281C36.8784 73.8281 36.2823 73.5812 35.8427 73.1417C35.4032 72.7021 35.1562 72.106 35.1562 71.4844V67.9688C35.0228 65.0456 34.4702 62.1567 33.5156 59.3906C30.2853 58.8023 27.2267 57.5012 24.5625 55.582C21.5109 56.9941 18.69 58.8589 16.1953 61.1133L14.0625 63.2578V63.2812C14.0625 63.9766 13.8563 64.6563 13.47 65.2344C13.0837 65.8126 12.5346 66.2632 11.8922 66.5293C11.2498 66.7954 10.543 66.865 9.86101 66.7293C9.17905 66.5937 8.55262 66.2588 8.06095 65.7672C7.56928 65.2755 7.23445 64.6491 7.0988 63.9671C6.96315 63.2851 7.03277 62.5783 7.29886 61.9359C7.56495 61.2935 8.01556 60.7444 8.5937 60.3581C9.17184 59.9718 9.85155 59.7656 10.5469 59.7656H10.5703L12.7148 57.6328C15.0525 55.0384 16.9738 52.0972 18.4102 48.9141C17.0331 46.6282 16.084 44.1105 15.6094 41.4844C12.8433 40.5298 9.95441 39.9772 7.03125 39.8438H3.51562C2.89402 39.8438 2.29788 39.5968 1.85834 39.1573C1.41881 38.7177 1.17188 38.1216 1.17188 37.5C1.17188 36.8784 1.41881 36.2823 1.85834 35.8427C2.29788 35.4032 2.89402 35.1562 3.51562 35.1562H7.03125C9.95441 35.0228 12.8433 34.4702 15.6094 33.5156C16.084 30.8895 17.0331 28.3718 18.4102 26.0859C16.9738 22.9028 15.0525 19.9616 12.7148 17.3672L10.5703 15.2344H10.5469C9.85155 15.2344 9.17184 15.0282 8.5937 14.6419C8.01556 14.2556 7.56495 13.7065 7.29886 13.0641C7.03277 12.4217 6.96315 11.7149 7.0988 11.0329C7.23445 10.3509 7.56928 9.7245 8.06095 9.23283C8.55262 8.74116 9.17905 8.40633 9.86101 8.27068C10.543 8.13503 11.2498 8.20465 11.8922 8.47074C12.5346 8.73683 13.0837 9.18743 13.47 9.76557C13.8563 10.3437 14.0625 11.0234 14.0625 11.7188V11.7422L16.1953 13.8867C18.69 16.1411 21.5109 18.0059 24.5625 19.418C27.2267 17.4988 30.2853 16.1977 33.5156 15.6094C34.4702 12.8433 35.0228 9.95441 35.1562 7.03125V3.51562C35.1562 2.89402 35.4032 2.29788 35.8427 1.85834C36.2823 1.41881 36.8784 1.17188 37.5 1.17188C38.1216 1.17188 38.7177 1.41881 39.1573 1.85834C39.5968 2.29788 39.8438 2.89402 39.8438 3.51562V7.03125C39.9772 9.95441 40.5298 12.8433 41.4844 15.6094C44.7147 16.1977 47.7733 17.4988 50.4375 19.418C53.4891 18.0059 56.31 16.1411 58.8047 13.8867L60.9375 11.7422V11.7188C60.9375 11.0234 61.1437 10.3437 61.53 9.76557C61.9163 9.18743 62.4654 8.73683 63.1078 8.47074C63.7502 8.20465 64.457 8.13503 65.139 8.27068C65.821 8.40633 66.4474 8.74116 66.939 9.23283C67.4307 9.7245 67.7655 10.3509 67.9012 11.0329C68.0368 11.7149 67.9672 12.4217 67.7011 13.0641C67.435 13.7065 66.9844 14.2556 66.4063 14.6419C65.8282 15.0282 65.1484 15.2344 64.4531 15.2344H64.4297L62.2852 17.3672C59.9475 19.9616 58.0262 22.9028 56.5898 26.0859C57.9669 28.3718 58.916 30.8895 59.3906 33.5156C62.1567 34.4702 65.0456 35.0228 67.9688 35.1562H71.4844ZM51.5625 33.9844C51.5625 33.2891 51.3563 32.6093 50.97 32.0312C50.5837 31.4531 50.0346 31.0025 49.3922 30.7364C48.7498 30.4703 48.043 30.4007 47.361 30.5363C46.679 30.672 46.0526 31.0068 45.561 31.4985C45.0693 31.9901 44.7345 32.6165 44.5988 33.2985C44.4632 33.9805 44.5328 34.6873 44.7989 35.3297C45.065 35.9721 45.5156 36.5212 46.0937 36.9075C46.6718 37.2938 47.3516 37.5 48.0469 37.5C48.9793 37.5 49.8735 37.1296 50.5328 36.4703C51.1921 35.811 51.5625 34.9168 51.5625 33.9844ZM45.7031 48.0469C45.7031 47.5833 45.5657 47.1302 45.3081 46.7448C45.0506 46.3593 44.6846 46.0589 44.2563 45.8815C43.828 45.7041 43.3568 45.6577 42.9021 45.7482C42.4475 45.8386 42.0299 46.0618 41.7021 46.3896C41.3743 46.7174 41.1511 47.135 41.0607 47.5896C40.9702 48.0443 41.0166 48.5155 41.194 48.9438C41.3714 49.3721 41.6718 49.7381 42.0573 49.9956C42.4427 50.2532 42.8958 50.3906 43.3594 50.3906C43.9804 50.3888 44.5755 50.1412 45.0146 49.7021C45.4537 49.263 45.7013 48.6679 45.7031 48.0469V48.0469ZM37.5 26.9531C37.5 26.4896 37.3625 26.0364 37.105 25.651C36.8475 25.2656 36.4814 24.9652 36.0532 24.7878C35.6249 24.6104 35.1537 24.564 34.699 24.6544C34.2444 24.7448 33.8267 24.9681 33.499 25.2958C33.1712 25.6236 32.948 26.0412 32.8575 26.4959C32.7671 26.9505 32.8135 27.4218 32.9909 27.85C33.1683 28.2783 33.4687 28.6443 33.8541 28.9019C34.2396 29.1594 34.6927 29.2969 35.1562 29.2969C35.7773 29.295 36.3723 29.0475 36.8115 28.6084C37.2506 28.1692 37.4981 27.5742 37.5 26.9531ZM33.9844 41.0156C33.9844 40.0885 33.7095 39.1822 33.1944 38.4114C32.6793 37.6405 31.9472 37.0397 31.0907 36.6849C30.2342 36.3302 29.2917 36.2373 28.3824 36.4182C27.4731 36.5991 26.6379 37.0455 25.9823 37.7011C25.3268 38.3566 24.8803 39.1919 24.6994 40.1011C24.5186 41.0104 24.6114 41.9529 24.9662 42.8095C25.321 43.666 25.9218 44.3981 26.6926 44.9131C27.4635 45.4282 28.3698 45.7031 29.2969 45.7031C30.5401 45.7031 31.7324 45.2093 32.6114 44.3302C33.4905 43.4511 33.9844 42.2588 33.9844 41.0156Z" fill="#63C8F2"/>
<path d="M48.0469 37.5C49.9885 37.5 51.5625 35.926 51.5625 33.9844C51.5625 32.0427 49.9885 30.4688 48.0469 30.4688C46.1052 30.4688 44.5312 32.0427 44.5312 33.9844C44.5312 35.926 46.1052 37.5 48.0469 37.5Z" fill="#D88DBC" fill-opacity="0.9"/>
<path d="M37.5 18.75C33.7916 18.75 30.1665 19.8497 27.0831 21.9099C23.9996 23.9702 21.5964 26.8986 20.1773 30.3247C18.7581 33.7508 18.3868 37.5208 19.1103 41.1579C19.8338 44.7951 21.6195 48.136 24.2418 50.7583C26.864 53.3805 30.2049 55.1663 33.8421 55.8897C37.4792 56.6132 41.2492 56.2419 44.6753 54.8227C48.1014 53.4036 51.0298 51.0004 53.0901 47.9169C55.1503 44.8335 56.25 41.2084 56.25 37.5C56.25 32.5272 54.2746 27.7581 50.7583 24.2417C47.242 20.7254 42.4728 18.75 37.5 18.75ZM29.2969 45.7031C28.3698 45.7031 27.4635 45.4282 26.6926 44.9131C25.9218 44.3981 25.321 43.666 24.9662 42.8095C24.6114 41.9529 24.5186 41.0104 24.6995 40.1011C24.8803 39.1919 25.3268 38.3566 25.9823 37.7011C26.6379 37.0455 27.4731 36.5991 28.3824 36.4182C29.2917 36.2373 30.2342 36.3302 31.0907 36.6849C31.9472 37.0397 32.6793 37.6405 33.1944 38.4114C33.7095 39.1822 33.9844 40.0885 33.9844 41.0156C33.9844 42.2588 33.4905 43.4511 32.6114 44.3302C31.7324 45.2093 30.5401 45.7031 29.2969 45.7031ZM35.1563 29.2969C34.6927 29.2969 34.2396 29.1594 33.8541 28.9019C33.4687 28.6443 33.1683 28.2783 32.9909 27.85C32.8135 27.4218 32.7671 26.9505 32.8575 26.4959C32.948 26.0412 33.1712 25.6236 33.499 25.2958C33.8268 24.9681 34.2444 24.7448 34.699 24.6544C35.1537 24.564 35.6249 24.6104 36.0532 24.7878C36.4814 24.9652 36.8475 25.2656 37.105 25.651C37.3625 26.0364 37.5 26.4896 37.5 26.9531C37.4982 27.5742 37.2506 28.1692 36.8115 28.6084C36.3724 29.0475 35.7773 29.295 35.1563 29.2969ZM43.3594 50.3906C42.8958 50.3906 42.4427 50.2532 42.0573 49.9956C41.6718 49.7381 41.3714 49.3721 41.194 48.9438C41.0166 48.5155 40.9702 48.0443 41.0607 47.5896C41.1511 47.135 41.3743 46.7174 41.7021 46.3896C42.0299 46.0618 42.4475 45.8386 42.9021 45.7482C43.3568 45.6577 43.828 45.7041 44.2563 45.8815C44.6846 46.0589 45.0506 46.3593 45.3081 46.7448C45.5657 47.1302 45.7031 47.5833 45.7031 48.0469C45.7013 48.6679 45.4538 49.263 45.0146 49.7021C44.5755 50.1412 43.9804 50.3888 43.3594 50.3906V50.3906ZM48.0469 37.5C47.3516 37.5 46.6718 37.2938 46.0937 36.9075C45.5156 36.5212 45.065 35.9721 44.7989 35.3297C44.5328 34.6873 44.4632 33.9805 44.5988 33.2985C44.7345 32.6165 45.0693 31.9901 45.561 31.4985C46.0526 31.0068 46.6791 30.672 47.361 30.5363C48.043 30.4007 48.7499 30.4703 49.3923 30.7364C50.0346 31.0025 50.5837 31.4531 50.97 32.0312C51.3563 32.6093 51.5625 33.2891 51.5625 33.9844C51.5625 34.9168 51.1921 35.811 50.5328 36.4703C49.8735 37.1296 48.9793 37.5 48.0469 37.5Z" fill="#63C8F2"/>
<path d="M29.2969 35.1562C28.138 35.1562 27.0052 35.4999 26.0416 36.1437C25.078 36.7876 24.327 37.7027 23.8835 38.7733C23.44 39.844 23.324 41.0221 23.5501 42.1587C23.7762 43.2953 24.3342 44.3394 25.1537 45.1588C25.9731 45.9783 27.0172 46.5363 28.1538 46.7624C29.2904 46.9885 30.4685 46.8725 31.5392 46.429C32.6098 45.9855 33.5249 45.2345 34.1688 44.2709C34.8126 43.3073 35.1563 42.1745 35.1563 41.0156C35.1563 39.4616 34.5389 37.9713 33.4401 36.8724C32.3412 35.7736 30.8509 35.1562 29.2969 35.1562ZM29.2969 45.7031C28.3698 45.7031 27.4635 45.4282 26.6926 44.9131C25.9218 44.3981 25.321 43.666 24.9662 42.8095C24.6114 41.9529 24.5186 41.0104 24.6994 40.1011C24.8803 39.1919 25.3268 38.3566 25.9823 37.7011C26.6379 37.0455 27.4731 36.5991 28.3824 36.4182C29.2917 36.2373 30.2342 36.3302 31.0907 36.6849C31.9472 37.0397 32.6793 37.6405 33.1944 38.4114C33.7095 39.1822 33.9844 40.0885 33.9844 41.0156C33.9844 42.2588 33.4905 43.4511 32.6114 44.3302C31.7324 45.2093 30.5401 45.7031 29.2969 45.7031Z" fill="#D88DBC" fill-opacity="0.9"/>
<path d="M35.1563 23.4375C34.4609 23.4375 33.7812 23.6437 33.2031 24.03C32.6249 24.4163 32.1743 24.9654 31.9082 25.6078C31.6421 26.2502 31.5725 26.957 31.7082 27.639C31.8438 28.321 32.1787 28.9474 32.6703 29.439C33.162 29.9307 33.7884 30.2655 34.4704 30.4012C35.1524 30.5368 35.8592 30.4672 36.5016 30.2011C37.144 29.935 37.6931 29.4844 38.0794 28.9063C38.4657 28.3282 38.6719 27.6484 38.6719 26.9531C38.6719 26.0207 38.3015 25.1265 37.6422 24.4672C36.9829 23.8079 36.0887 23.4375 35.1563 23.4375ZM35.1563 29.2969C34.6927 29.2969 34.2396 29.1594 33.8541 28.9019C33.4687 28.6443 33.1683 28.2783 32.9909 27.85C32.8135 27.4218 32.7671 26.9505 32.8575 26.4959C32.948 26.0412 33.1712 25.6236 33.499 25.2958C33.8268 24.9681 34.2444 24.7448 34.699 24.6544C35.1537 24.564 35.6249 24.6104 36.0532 24.7878C36.4814 24.9652 36.8475 25.2656 37.105 25.651C37.3625 26.0364 37.5 26.4896 37.5 26.9531C37.4981 27.5742 37.2506 28.1692 36.8115 28.6084C36.3723 29.0475 35.7773 29.295 35.1563 29.2969Z" fill="#D88DBC" fill-opacity="0.9"/>
<path d="M43.3594 44.5312C42.6641 44.5312 41.9843 44.7374 41.4062 45.1237C40.8281 45.51 40.3775 46.0591 40.1114 46.7015C39.8453 47.3439 39.7757 48.0508 39.9113 48.7327C40.047 49.4147 40.3818 50.0411 40.8735 50.5328C41.3651 51.0245 41.9915 51.3593 42.6735 51.4949C43.3555 51.6306 44.0623 51.561 44.7047 51.2949C45.3471 51.0288 45.8962 50.5782 46.2825 50.0001C46.6688 49.4219 46.875 48.7422 46.875 48.0469C46.875 47.1145 46.5046 46.2203 45.8453 45.561C45.186 44.9016 44.2918 44.5312 43.3594 44.5312ZM43.3594 50.3906C42.8958 50.3906 42.4427 50.2532 42.0573 49.9956C41.6718 49.7381 41.3714 49.3721 41.194 48.9438C41.0166 48.5155 40.9702 48.0443 41.0607 47.5896C41.1511 47.135 41.3743 46.7174 41.7021 46.3896C42.0299 46.0618 42.4475 45.8386 42.9021 45.7482C43.3568 45.6577 43.828 45.7041 44.2563 45.8815C44.6846 46.0589 45.0506 46.3593 45.3081 46.7448C45.5657 47.1302 45.7031 47.5833 45.7031 48.0469C45.7013 48.6679 45.4537 49.263 45.0146 49.7021C44.5755 50.1412 43.9804 50.3888 43.3594 50.3906V50.3906Z" fill="#D88DBC" fill-opacity="0.9"/>
<path d="M48.0469 29.2969C47.1198 29.2969 46.2135 29.5718 45.4426 30.0869C44.6718 30.6019 44.071 31.334 43.7162 32.1905C43.3614 33.0471 43.2686 33.9896 43.4494 34.8989C43.6303 35.8081 44.0768 36.6434 44.7323 37.2989C45.3879 37.9545 46.2231 38.4009 47.1324 38.5818C48.0417 38.7627 48.9842 38.6698 49.8407 38.3151C50.6972 37.9603 51.4293 37.3595 51.9444 36.5886C52.4595 35.8178 52.7344 34.9115 52.7344 33.9844C52.7344 32.7412 52.2405 31.5489 51.3614 30.6698C50.4824 29.7907 49.2901 29.2969 48.0469 29.2969ZM48.0469 37.5C47.3516 37.5 46.6718 37.2938 46.0937 36.9075C45.5156 36.5212 45.065 35.9721 44.7989 35.3297C44.5328 34.6873 44.4632 33.9805 44.5988 33.2985C44.7345 32.6165 45.0693 31.9901 45.561 31.4985C46.0526 31.0068 46.679 30.672 47.361 30.5363C48.043 30.4007 48.7499 30.4703 49.3922 30.7364C50.0346 31.0025 50.5837 31.4531 50.97 32.0312C51.3563 32.6093 51.5625 33.2891 51.5625 33.9844C51.5625 34.9168 51.1921 35.811 50.5328 36.4703C49.8735 37.1296 48.9793 37.5 48.0469 37.5Z" fill="#D88DBC" fill-opacity="0.9"/>
<path d="M10.5469 14.0625C11.8413 14.0625 12.8906 13.0132 12.8906 11.7188C12.8906 10.4243 11.8413 9.375 10.5469 9.375C9.25246 9.375 8.20312 10.4243 8.20312 11.7188C8.20312 13.0132 9.25246 14.0625 10.5469 14.0625Z" fill="#D88DBC" fill-opacity="0.9"/>
<path d="M64.4531 14.0625C65.7475 14.0625 66.7969 13.0132 66.7969 11.7188C66.7969 10.4243 65.7475 9.375 64.4531 9.375C63.1587 9.375 62.1094 10.4243 62.1094 11.7188C62.1094 13.0132 63.1587 14.0625 64.4531 14.0625Z" fill="#D88DBC" fill-opacity="0.9"/>
<path d="M64.4531 65.625C65.7475 65.625 66.7969 64.5757 66.7969 63.2812C66.7969 61.9868 65.7475 60.9375 64.4531 60.9375C63.1587 60.9375 62.1094 61.9868 62.1094 63.2812C62.1094 64.5757 63.1587 65.625 64.4531 65.625Z" fill="#D88DBC" fill-opacity="0.9"/>
<path d="M49.2188 45.7031C50.5132 45.7031 51.5625 44.6538 51.5625 43.3594C51.5625 42.065 50.5132 41.0156 49.2188 41.0156C47.9243 41.0156 46.875 42.065 46.875 43.3594C46.875 44.6538 47.9243 45.7031 49.2188 45.7031Z" fill="#D88DBC" fill-opacity="0.9"/>
<path d="M25.7812 32.8125C27.0757 32.8125 28.125 31.7632 28.125 30.4688C28.125 29.1743 27.0757 28.125 25.7812 28.125C24.4868 28.125 23.4375 29.1743 23.4375 30.4688C23.4375 31.7632 24.4868 32.8125 25.7812 32.8125Z" fill="#D88DBC" fill-opacity="0.9"/>
<path d="M42.1875 28.125C43.4819 28.125 44.5312 27.0757 44.5312 25.7812C44.5312 24.4868 43.4819 23.4375 42.1875 23.4375C40.8931 23.4375 39.8438 24.4868 39.8438 25.7812C39.8438 27.0757 40.8931 28.125 42.1875 28.125Z" fill="#D88DBC" fill-opacity="0.9"/>
<path d="M10.5469 65.625C11.8413 65.625 12.8906 64.5757 12.8906 63.2812C12.8906 61.9868 11.8413 60.9375 10.5469 60.9375C9.25246 60.9375 8.20312 61.9868 8.20312 63.2812C8.20312 64.5757 9.25246 65.625 10.5469 65.625Z" fill="#D88DBC" fill-opacity="0.9"/>
<path d="M71.4844 38.6719C72.1316 38.6719 72.6562 38.1472 72.6562 37.5C72.6562 36.8528 72.1316 36.3281 71.4844 36.3281C70.8372 36.3281 70.3125 36.8528 70.3125 37.5C70.3125 38.1472 70.8372 38.6719 71.4844 38.6719Z" fill="#D88DBC" fill-opacity="0.9"/>
<path d="M38.6719 37.5C39.3191 37.5 39.8438 36.9753 39.8438 36.3281C39.8438 35.6809 39.3191 35.1562 38.6719 35.1562C38.0247 35.1562 37.5 35.6809 37.5 36.3281C37.5 36.9753 38.0247 37.5 38.6719 37.5Z" fill="#D88DBC" fill-opacity="0.9"/>
<path d="M35.1562 51.5625C35.8035 51.5625 36.3281 51.0378 36.3281 50.3906C36.3281 49.7434 35.8035 49.2188 35.1562 49.2188C34.509 49.2188 33.9844 49.7434 33.9844 50.3906C33.9844 51.0378 34.509 51.5625 35.1562 51.5625Z" fill="#D88DBC" fill-opacity="0.9"/>
<path d="M3.51562 38.6719C4.16283 38.6719 4.6875 38.1472 4.6875 37.5C4.6875 36.8528 4.16283 36.3281 3.51562 36.3281C2.86842 36.3281 2.34375 36.8528 2.34375 37.5C2.34375 38.1472 2.86842 38.6719 3.51562 38.6719Z" fill="#D88DBC" fill-opacity="0.9"/>
<path d="M37.5 4.6875C38.1472 4.6875 38.6719 4.16283 38.6719 3.51562C38.6719 2.86842 38.1472 2.34375 37.5 2.34375C36.8528 2.34375 36.3281 2.86842 36.3281 3.51562C36.3281 4.16283 36.8528 4.6875 37.5 4.6875Z" fill="#D88DBC" fill-opacity="0.9"/>
<path d="M37.5 72.6562C38.1472 72.6562 38.6719 72.1316 38.6719 71.4844C38.6719 70.8372 38.1472 70.3125 37.5 70.3125C36.8528 70.3125 36.3281 70.8372 36.3281 71.4844C36.3281 72.1316 36.8528 72.6562 37.5 72.6562Z" fill="#D88DBC" fill-opacity="0.9"/>
</svg>
